<svg xmlns="http://www.w3.org/2000/svg" viewBox="0 0 32 32" fill="none">
  <path d="M16 2L29 9V23L16 30L3 23V9L16 2Z" stroke="#2563eb" stroke-width="1.5" fill="none" opacity="0.3"/>
  <circle cx="16" cy="16" r="4" fill="#2563eb"/>
  <circle cx="16" cy="16" r="2" fill="#60a5fa"/>
  <line x1="16" y1="16" x2="16" y2="7" stroke="#2563eb" stroke-width="1.5" stroke-linecap="round"/>
  <line x1="16" y1="16" x2="23.8" y2="11.5" stroke="#2563eb" stroke-width="1.5" stroke-linecap="round"/>
  <line x1="16" y1="16" x2="23.8" y2="20.5" stroke="#2563eb" stroke-width="1.5" stroke-linecap="round"/>
  <line x1="16" y1="16" x2="16" y2="25" stroke="#2563eb" stroke-width="1.5" stroke-linecap="round"/>
  <line x1="16" y1="16" x2="8.2" y2="20.5" stroke="#2563eb" stroke-width="1.5" stroke-linecap="round"/>
  <line x1="16" y1="16" x2="8.2" y2="11.5" stroke="#2563eb" stroke-width="1.5" stroke-linecap="round"/>
  <circle cx="16" cy="7" r="2" fill="#60a5fa"/>
  <circle cx="23.8" cy="11.5" r="2" fill="#8b5cf6"/>
  <circle cx="23.8" cy="20.5" r="2" fill="#06b6d4"/>
  <circle cx="16" cy="25" r="2" fill="#10b981"/>
  <circle cx="8.2" cy="20.5" r="2" fill="#f59e0b"/>
  <circle cx="8.2" cy="11.5" r="2" fill="#ec4899"/>
</svg>
